<?xml version="1.0" encoding="iso-8859-1"?>
<!-- Uploaded to: SVG Repo, www.svgrepo.com, Generator: SVG Repo Mixer Tools -->
<svg version="1.1" id="Layer_1" xmlns="http://www.w3.org/2000/svg" xmlns:xlink="http://www.w3.org/1999/xlink" 
	 viewBox="0 0 290.625 290.625" xml:space="preserve">
<g>
	<g>
		<path style="fill:#474747;" d="M225.16,206.002l-26.372-4.584l-20.386-15.347c10.87-7.955,19.069-18.905,23.658-31.439
			c11.4-0.305,20.597-10.65,20.597-23.381c0-6.9-2.747-13.05-7.031-17.339v-6.098c0-38.77-31.542-70.313-70.313-70.313
			S75,69.042,75,107.813v8.887c-2.888,4.013-4.688,9.028-4.688,14.55c0,11.803,7.922,21.502,18.155,23.109
			c4.514,12.488,12.6,23.414,23.344,31.397l-20.025,15.67l-26.32,4.58c-19.102,3.323-34.486,18.328-38.288,37.336l-9.459,47.283
			h100.885h22.645h8.123h22.645h100.889l-9.459-47.288C259.646,224.33,244.257,209.325,225.16,206.002z M145.716,281.25h-0.806
			l-22.223-88.884c1.195,0.581,2.391,1.158,3.623,1.673c6.042,2.517,12.52,3.773,19.003,3.773c6.478,0,12.966-1.261,18.998-3.778
			c1.237-0.516,2.433-1.092,3.623-1.673L145.716,281.25z M204.863,144.675c0.886-4.406,1.388-8.93,1.388-13.547v-12.745
			c4.13,2.175,7.031,7.12,7.031,12.872C213.282,137.621,209.71,142.95,204.863,144.675z M145.313,46.875
			c33.6,0,60.938,27.338,60.938,60.938h-4.688c-18.947,0-28.748-11.808-29.142-12.291l-2.194-2.756l-3.258,1.336
			c-0.338,0.136-33.872,13.711-77.906,13.711h-4.688C84.375,74.213,111.713,46.875,145.313,46.875z M79.688,131.25
			c0-4.575,1.861-8.611,4.688-11.18v11.053c0,4.153,0.417,8.227,1.134,12.206C82.045,140.888,79.688,136.416,79.688,131.25z
			 M93.75,131.128v-13.987c36.464-0.741,64.688-9.9,73.749-13.205c4.27,4.092,14.119,11.709,29.377,13.05v14.142
			c0,23.803-14.198,45.098-36.169,54.258c-9.783,4.073-21,4.073-30.783,0C107.949,176.227,93.75,154.931,93.75,131.128z
			 M29.156,281.25l7.214-36.07c3.047-15.244,15.389-27.272,30.703-29.939l20.18-3.511l-4.538,16.364l11.653,3.717L82.86,243.319
			l28.659,37.931H29.156z M95.264,244.181l16.617-16.617l-17.719-5.658l3.698-13.322l16.078-12.586l21.309,85.252H123.27
			L95.264,244.181z M155.377,281.25l21.206-84.811l16.195,12.192l3.684,13.275l-17.719,5.658l16.617,16.617l-28.003,37.069H155.377z
			 M179.105,281.25l28.659-37.931l-11.508-11.508l11.653-3.717l-4.538-16.364l20.18,3.511c15.319,2.663,27.656,14.695,30.703,29.939
			l7.214,36.07H179.105z"/>
	</g>
</g>
</svg>